<mxfile host="app.diagrams.net" agent="Mozilla/5.0 (Windows NT 10.0; Win64; x64) AppleWebKit/537.36 (KHTML, like Gecko) Chrome/128.0.0.0 YaBrowser/24.10.0.0 Safari/537.36" version="24.8.3">
  <diagram name="Страница — 1" id="RJHOXgm8MahDYp4_sUfU">
    <mxGraphModel dx="819" dy="1607" grid="1" gridSize="10" guides="1" tooltips="1" connect="1" arrows="1" fold="1" page="1" pageScale="1" pageWidth="827" pageHeight="1169" math="0" shadow="0">
      <root>
        <mxCell id="0" />
        <mxCell id="1" parent="0" />
        <mxCell id="ZMNZ-_W-Ul5XSr0eKzs9-1" value="" style="shape=table;startSize=0;container=1;collapsible=0;childLayout=tableLayout;" vertex="1" parent="1">
          <mxGeometry x="110" y="70" width="802" height="60" as="geometry" />
        </mxCell>
        <mxCell id="ZMNZ-_W-Ul5XSr0eKzs9-2" value="" style="shape=tableRow;horizontal=0;startSize=0;swimlaneHead=0;swimlaneBody=0;strokeColor=inherit;top=0;left=0;bottom=0;right=0;collapsible=0;dropTarget=0;fillColor=none;points=[[0,0.5],[1,0.5]];portConstraint=eastwest;" vertex="1" parent="ZMNZ-_W-Ul5XSr0eKzs9-1">
          <mxGeometry width="802" height="60" as="geometry" />
        </mxCell>
        <mxCell id="ZMNZ-_W-Ul5XSr0eKzs9-10" value="id&lt;div&gt;int&lt;/div&gt;" style="shape=partialRectangle;html=1;whiteSpace=wrap;connectable=0;strokeColor=inherit;overflow=hidden;fillColor=none;top=0;left=0;bottom=0;right=0;pointerEvents=1;" vertex="1" parent="ZMNZ-_W-Ul5XSr0eKzs9-2">
          <mxGeometry width="89" height="60" as="geometry">
            <mxRectangle width="89" height="60" as="alternateBounds" />
          </mxGeometry>
        </mxCell>
        <mxCell id="ZMNZ-_W-Ul5XSr0eKzs9-3" value="title&lt;div&gt;string&lt;/div&gt;" style="shape=partialRectangle;html=1;whiteSpace=wrap;connectable=0;strokeColor=inherit;overflow=hidden;fillColor=none;top=0;left=0;bottom=0;right=0;pointerEvents=1;" vertex="1" parent="ZMNZ-_W-Ul5XSr0eKzs9-2">
          <mxGeometry x="89" width="89" height="60" as="geometry">
            <mxRectangle width="89" height="60" as="alternateBounds" />
          </mxGeometry>
        </mxCell>
        <mxCell id="ZMNZ-_W-Ul5XSr0eKzs9-4" value="author_id&lt;div&gt;int&lt;/div&gt;" style="shape=partialRectangle;html=1;whiteSpace=wrap;connectable=0;strokeColor=inherit;overflow=hidden;fillColor=none;top=0;left=0;bottom=0;right=0;pointerEvents=1;" vertex="1" parent="ZMNZ-_W-Ul5XSr0eKzs9-2">
          <mxGeometry x="178" width="89" height="60" as="geometry">
            <mxRectangle width="89" height="60" as="alternateBounds" />
          </mxGeometry>
        </mxCell>
        <mxCell id="ZMNZ-_W-Ul5XSr0eKzs9-5" value="publisher_id&lt;div&gt;int&lt;/div&gt;" style="shape=partialRectangle;html=1;whiteSpace=wrap;connectable=0;strokeColor=inherit;overflow=hidden;fillColor=none;top=0;left=0;bottom=0;right=0;pointerEvents=1;" vertex="1" parent="ZMNZ-_W-Ul5XSr0eKzs9-2">
          <mxGeometry x="267" width="90" height="60" as="geometry">
            <mxRectangle width="90" height="60" as="alternateBounds" />
          </mxGeometry>
        </mxCell>
        <mxCell id="ZMNZ-_W-Ul5XSr0eKzs9-6" value="publish_year&lt;div&gt;int&lt;/div&gt;" style="shape=partialRectangle;html=1;whiteSpace=wrap;connectable=0;strokeColor=inherit;overflow=hidden;fillColor=none;top=0;left=0;bottom=0;right=0;pointerEvents=1;" vertex="1" parent="ZMNZ-_W-Ul5XSr0eKzs9-2">
          <mxGeometry x="357" width="89" height="60" as="geometry">
            <mxRectangle width="89" height="60" as="alternateBounds" />
          </mxGeometry>
        </mxCell>
        <mxCell id="ZMNZ-_W-Ul5XSr0eKzs9-7" value="pages&lt;div&gt;int&lt;/div&gt;" style="shape=partialRectangle;html=1;whiteSpace=wrap;connectable=0;strokeColor=inherit;overflow=hidden;fillColor=none;top=0;left=0;bottom=0;right=0;pointerEvents=1;" vertex="1" parent="ZMNZ-_W-Ul5XSr0eKzs9-2">
          <mxGeometry x="446" width="89" height="60" as="geometry">
            <mxRectangle width="89" height="60" as="alternateBounds" />
          </mxGeometry>
        </mxCell>
        <mxCell id="ZMNZ-_W-Ul5XSr0eKzs9-9" value="price&lt;div&gt;float&lt;/div&gt;" style="shape=partialRectangle;html=1;whiteSpace=wrap;connectable=0;strokeColor=inherit;overflow=hidden;fillColor=none;top=0;left=0;bottom=0;right=0;pointerEvents=1;" vertex="1" parent="ZMNZ-_W-Ul5XSr0eKzs9-2">
          <mxGeometry x="535" width="89" height="60" as="geometry">
            <mxRectangle width="89" height="60" as="alternateBounds" />
          </mxGeometry>
        </mxCell>
        <mxCell id="ZMNZ-_W-Ul5XSr0eKzs9-58" value="cover&lt;div&gt;byte[]&lt;/div&gt;" style="shape=partialRectangle;html=1;whiteSpace=wrap;connectable=0;strokeColor=inherit;overflow=hidden;fillColor=none;top=0;left=0;bottom=0;right=0;pointerEvents=1;" vertex="1" parent="ZMNZ-_W-Ul5XSr0eKzs9-2">
          <mxGeometry x="624" width="89" height="60" as="geometry">
            <mxRectangle width="89" height="60" as="alternateBounds" />
          </mxGeometry>
        </mxCell>
        <mxCell id="ZMNZ-_W-Ul5XSr0eKzs9-57" value="activity&lt;div&gt;bool&lt;/div&gt;" style="shape=partialRectangle;html=1;whiteSpace=wrap;connectable=0;strokeColor=inherit;overflow=hidden;fillColor=none;top=0;left=0;bottom=0;right=0;pointerEvents=1;" vertex="1" parent="ZMNZ-_W-Ul5XSr0eKzs9-2">
          <mxGeometry x="713" width="89" height="60" as="geometry">
            <mxRectangle width="89" height="60" as="alternateBounds" />
          </mxGeometry>
        </mxCell>
        <mxCell id="ZMNZ-_W-Ul5XSr0eKzs9-8" value="books" style="text;html=1;align=center;verticalAlign=middle;resizable=0;points=[];autosize=1;strokeColor=none;fillColor=none;" vertex="1" parent="1">
          <mxGeometry x="110" y="40" width="60" height="30" as="geometry" />
        </mxCell>
        <mxCell id="ZMNZ-_W-Ul5XSr0eKzs9-11" value="authors" style="text;html=1;align=center;verticalAlign=middle;resizable=0;points=[];autosize=1;strokeColor=none;fillColor=none;" vertex="1" parent="1">
          <mxGeometry x="110" y="168" width="60" height="30" as="geometry" />
        </mxCell>
        <mxCell id="ZMNZ-_W-Ul5XSr0eKzs9-23" value="" style="shape=table;startSize=0;container=1;collapsible=0;childLayout=tableLayout;" vertex="1" parent="1">
          <mxGeometry x="110" y="198" width="549" height="40" as="geometry" />
        </mxCell>
        <mxCell id="ZMNZ-_W-Ul5XSr0eKzs9-24" value="" style="shape=tableRow;horizontal=0;startSize=0;swimlaneHead=0;swimlaneBody=0;strokeColor=inherit;top=0;left=0;bottom=0;right=0;collapsible=0;dropTarget=0;fillColor=none;points=[[0,0.5],[1,0.5]];portConstraint=eastwest;" vertex="1" parent="ZMNZ-_W-Ul5XSr0eKzs9-23">
          <mxGeometry width="549" height="40" as="geometry" />
        </mxCell>
        <mxCell id="ZMNZ-_W-Ul5XSr0eKzs9-25" value="id&lt;div&gt;int&lt;/div&gt;" style="shape=partialRectangle;html=1;whiteSpace=wrap;connectable=0;strokeColor=inherit;overflow=hidden;fillColor=none;top=0;left=0;bottom=0;right=0;pointerEvents=1;" vertex="1" parent="ZMNZ-_W-Ul5XSr0eKzs9-24">
          <mxGeometry width="111" height="40" as="geometry">
            <mxRectangle width="111" height="40" as="alternateBounds" />
          </mxGeometry>
        </mxCell>
        <mxCell id="ZMNZ-_W-Ul5XSr0eKzs9-26" value="last_name&lt;div&gt;string&lt;/div&gt;" style="shape=partialRectangle;html=1;whiteSpace=wrap;connectable=0;strokeColor=inherit;overflow=hidden;fillColor=none;top=0;left=0;bottom=0;right=0;pointerEvents=1;" vertex="1" parent="ZMNZ-_W-Ul5XSr0eKzs9-24">
          <mxGeometry x="111" width="109" height="40" as="geometry">
            <mxRectangle width="109" height="40" as="alternateBounds" />
          </mxGeometry>
        </mxCell>
        <mxCell id="ZMNZ-_W-Ul5XSr0eKzs9-27" value="first_name&lt;div&gt;string&lt;/div&gt;" style="shape=partialRectangle;html=1;whiteSpace=wrap;connectable=0;strokeColor=inherit;overflow=hidden;fillColor=none;top=0;left=0;bottom=0;right=0;pointerEvents=1;" vertex="1" parent="ZMNZ-_W-Ul5XSr0eKzs9-24">
          <mxGeometry x="220" width="111" height="40" as="geometry">
            <mxRectangle width="111" height="40" as="alternateBounds" />
          </mxGeometry>
        </mxCell>
        <mxCell id="ZMNZ-_W-Ul5XSr0eKzs9-28" value="birth_date&lt;div&gt;date&lt;/div&gt;" style="shape=partialRectangle;html=1;whiteSpace=wrap;connectable=0;strokeColor=inherit;overflow=hidden;fillColor=none;top=0;left=0;bottom=0;right=0;pointerEvents=1;" vertex="1" parent="ZMNZ-_W-Ul5XSr0eKzs9-24">
          <mxGeometry x="331" width="109" height="40" as="geometry">
            <mxRectangle width="109" height="40" as="alternateBounds" />
          </mxGeometry>
        </mxCell>
        <mxCell id="ZMNZ-_W-Ul5XSr0eKzs9-29" value="country_id&lt;div&gt;int&lt;/div&gt;" style="shape=partialRectangle;html=1;whiteSpace=wrap;connectable=0;strokeColor=inherit;overflow=hidden;fillColor=none;top=0;left=0;bottom=0;right=0;pointerEvents=1;" vertex="1" parent="ZMNZ-_W-Ul5XSr0eKzs9-24">
          <mxGeometry x="440" width="109" height="40" as="geometry">
            <mxRectangle width="109" height="40" as="alternateBounds" />
          </mxGeometry>
        </mxCell>
        <mxCell id="ZMNZ-_W-Ul5XSr0eKzs9-30" value="publishers" style="text;html=1;align=center;verticalAlign=middle;resizable=0;points=[];autosize=1;strokeColor=none;fillColor=none;" vertex="1" parent="1">
          <mxGeometry x="100" y="280" width="80" height="30" as="geometry" />
        </mxCell>
        <mxCell id="ZMNZ-_W-Ul5XSr0eKzs9-31" value="" style="shape=table;startSize=0;container=1;collapsible=0;childLayout=tableLayout;" vertex="1" parent="1">
          <mxGeometry x="110" y="310" width="329" height="40" as="geometry" />
        </mxCell>
        <mxCell id="ZMNZ-_W-Ul5XSr0eKzs9-32" value="" style="shape=tableRow;horizontal=0;startSize=0;swimlaneHead=0;swimlaneBody=0;strokeColor=inherit;top=0;left=0;bottom=0;right=0;collapsible=0;dropTarget=0;fillColor=none;points=[[0,0.5],[1,0.5]];portConstraint=eastwest;" vertex="1" parent="ZMNZ-_W-Ul5XSr0eKzs9-31">
          <mxGeometry width="329" height="40" as="geometry" />
        </mxCell>
        <mxCell id="ZMNZ-_W-Ul5XSr0eKzs9-33" value="id&lt;div&gt;int&lt;/div&gt;" style="shape=partialRectangle;html=1;whiteSpace=wrap;connectable=0;strokeColor=inherit;overflow=hidden;fillColor=none;top=0;left=0;bottom=0;right=0;pointerEvents=1;" vertex="1" parent="ZMNZ-_W-Ul5XSr0eKzs9-32">
          <mxGeometry width="111" height="40" as="geometry">
            <mxRectangle width="111" height="40" as="alternateBounds" />
          </mxGeometry>
        </mxCell>
        <mxCell id="ZMNZ-_W-Ul5XSr0eKzs9-34" value="title&lt;div&gt;string&lt;/div&gt;" style="shape=partialRectangle;html=1;whiteSpace=wrap;connectable=0;strokeColor=inherit;overflow=hidden;fillColor=none;top=0;left=0;bottom=0;right=0;pointerEvents=1;" vertex="1" parent="ZMNZ-_W-Ul5XSr0eKzs9-32">
          <mxGeometry x="111" width="109" height="40" as="geometry">
            <mxRectangle width="109" height="40" as="alternateBounds" />
          </mxGeometry>
        </mxCell>
        <mxCell id="ZMNZ-_W-Ul5XSr0eKzs9-37" value="country_id&lt;div&gt;int&lt;/div&gt;" style="shape=partialRectangle;html=1;whiteSpace=wrap;connectable=0;strokeColor=inherit;overflow=hidden;fillColor=none;top=0;left=0;bottom=0;right=0;pointerEvents=1;" vertex="1" parent="ZMNZ-_W-Ul5XSr0eKzs9-32">
          <mxGeometry x="220" width="109" height="40" as="geometry">
            <mxRectangle width="109" height="40" as="alternateBounds" />
          </mxGeometry>
        </mxCell>
        <mxCell id="ZMNZ-_W-Ul5XSr0eKzs9-39" value="countries" style="text;html=1;align=center;verticalAlign=middle;resizable=0;points=[];autosize=1;strokeColor=none;fillColor=none;" vertex="1" parent="1">
          <mxGeometry x="110" y="390" width="70" height="30" as="geometry" />
        </mxCell>
        <mxCell id="ZMNZ-_W-Ul5XSr0eKzs9-40" value="" style="shape=table;startSize=0;container=1;collapsible=0;childLayout=tableLayout;" vertex="1" parent="1">
          <mxGeometry x="110" y="420" width="220" height="40" as="geometry" />
        </mxCell>
        <mxCell id="ZMNZ-_W-Ul5XSr0eKzs9-41" value="" style="shape=tableRow;horizontal=0;startSize=0;swimlaneHead=0;swimlaneBody=0;strokeColor=inherit;top=0;left=0;bottom=0;right=0;collapsible=0;dropTarget=0;fillColor=none;points=[[0,0.5],[1,0.5]];portConstraint=eastwest;" vertex="1" parent="ZMNZ-_W-Ul5XSr0eKzs9-40">
          <mxGeometry width="220" height="40" as="geometry" />
        </mxCell>
        <mxCell id="ZMNZ-_W-Ul5XSr0eKzs9-42" value="id&lt;div&gt;int&lt;/div&gt;" style="shape=partialRectangle;html=1;whiteSpace=wrap;connectable=0;strokeColor=inherit;overflow=hidden;fillColor=none;top=0;left=0;bottom=0;right=0;pointerEvents=1;" vertex="1" parent="ZMNZ-_W-Ul5XSr0eKzs9-41">
          <mxGeometry width="111" height="40" as="geometry">
            <mxRectangle width="111" height="40" as="alternateBounds" />
          </mxGeometry>
        </mxCell>
        <mxCell id="ZMNZ-_W-Ul5XSr0eKzs9-43" value="title&lt;div&gt;string&lt;/div&gt;" style="shape=partialRectangle;html=1;whiteSpace=wrap;connectable=0;strokeColor=inherit;overflow=hidden;fillColor=none;top=0;left=0;bottom=0;right=0;pointerEvents=1;" vertex="1" parent="ZMNZ-_W-Ul5XSr0eKzs9-41">
          <mxGeometry x="111" width="109" height="40" as="geometry">
            <mxRectangle width="109" height="40" as="alternateBounds" />
          </mxGeometry>
        </mxCell>
        <mxCell id="ZMNZ-_W-Ul5XSr0eKzs9-46" style="edgeStyle=orthogonalEdgeStyle;rounded=0;orthogonalLoop=1;jettySize=auto;html=1;entryX=0.218;entryY=0;entryDx=0;entryDy=0;entryPerimeter=0;" edge="1" parent="1" source="ZMNZ-_W-Ul5XSr0eKzs9-1" target="ZMNZ-_W-Ul5XSr0eKzs9-32">
          <mxGeometry relative="1" as="geometry">
            <Array as="points">
              <mxPoint x="422" y="270" />
              <mxPoint x="182" y="270" />
            </Array>
          </mxGeometry>
        </mxCell>
        <mxCell id="ZMNZ-_W-Ul5XSr0eKzs9-47" style="edgeStyle=orthogonalEdgeStyle;rounded=0;orthogonalLoop=1;jettySize=auto;html=1;entryX=0.378;entryY=-0.005;entryDx=0;entryDy=0;entryPerimeter=0;exitX=0.917;exitY=0.996;exitDx=0;exitDy=0;exitPerimeter=0;" edge="1" parent="1" source="ZMNZ-_W-Ul5XSr0eKzs9-24" target="ZMNZ-_W-Ul5XSr0eKzs9-41">
          <mxGeometry relative="1" as="geometry">
            <Array as="points">
              <mxPoint x="613" y="390" />
              <mxPoint x="193" y="390" />
            </Array>
          </mxGeometry>
        </mxCell>
        <mxCell id="ZMNZ-_W-Ul5XSr0eKzs9-48" style="edgeStyle=orthogonalEdgeStyle;rounded=0;orthogonalLoop=1;jettySize=auto;html=1;entryX=0.409;entryY=0;entryDx=0;entryDy=0;entryPerimeter=0;exitX=0.844;exitY=0.985;exitDx=0;exitDy=0;exitPerimeter=0;" edge="1" parent="1" source="ZMNZ-_W-Ul5XSr0eKzs9-32" target="ZMNZ-_W-Ul5XSr0eKzs9-41">
          <mxGeometry relative="1" as="geometry">
            <Array as="points">
              <mxPoint x="388" y="380" />
              <mxPoint x="200" y="380" />
            </Array>
          </mxGeometry>
        </mxCell>
        <mxCell id="ZMNZ-_W-Ul5XSr0eKzs9-49" value="" style="shape=table;startSize=0;container=1;collapsible=0;childLayout=tableLayout;" vertex="1" parent="1">
          <mxGeometry x="920" y="150" width="250" height="40" as="geometry" />
        </mxCell>
        <mxCell id="ZMNZ-_W-Ul5XSr0eKzs9-50" value="" style="shape=tableRow;horizontal=0;startSize=0;swimlaneHead=0;swimlaneBody=0;strokeColor=inherit;top=0;left=0;bottom=0;right=0;collapsible=0;dropTarget=0;fillColor=none;points=[[0,0.5],[1,0.5]];portConstraint=eastwest;" vertex="1" parent="ZMNZ-_W-Ul5XSr0eKzs9-49">
          <mxGeometry width="250" height="40" as="geometry" />
        </mxCell>
        <mxCell id="ZMNZ-_W-Ul5XSr0eKzs9-51" value="book_id&lt;div&gt;int&lt;/div&gt;" style="shape=partialRectangle;html=1;whiteSpace=wrap;connectable=0;strokeColor=inherit;overflow=hidden;fillColor=none;top=0;left=0;bottom=0;right=0;pointerEvents=1;" vertex="1" parent="ZMNZ-_W-Ul5XSr0eKzs9-50">
          <mxGeometry width="125" height="40" as="geometry">
            <mxRectangle width="125" height="40" as="alternateBounds" />
          </mxGeometry>
        </mxCell>
        <mxCell id="ZMNZ-_W-Ul5XSr0eKzs9-52" value="author_id&lt;div&gt;int&lt;/div&gt;" style="shape=partialRectangle;html=1;whiteSpace=wrap;connectable=0;strokeColor=inherit;overflow=hidden;fillColor=none;top=0;left=0;bottom=0;right=0;pointerEvents=1;" vertex="1" parent="ZMNZ-_W-Ul5XSr0eKzs9-50">
          <mxGeometry x="125" width="125" height="40" as="geometry">
            <mxRectangle width="125" height="40" as="alternateBounds" />
          </mxGeometry>
        </mxCell>
        <mxCell id="ZMNZ-_W-Ul5XSr0eKzs9-53" value="books-authors" style="text;html=1;align=center;verticalAlign=middle;resizable=0;points=[];autosize=1;strokeColor=none;fillColor=none;" vertex="1" parent="1">
          <mxGeometry x="910" y="120" width="100" height="30" as="geometry" />
        </mxCell>
        <mxCell id="ZMNZ-_W-Ul5XSr0eKzs9-54" style="edgeStyle=orthogonalEdgeStyle;rounded=0;orthogonalLoop=1;jettySize=auto;html=1;entryX=0.141;entryY=0.014;entryDx=0;entryDy=0;entryPerimeter=0;exitX=0.793;exitY=0.986;exitDx=0;exitDy=0;exitPerimeter=0;" edge="1" parent="1" source="ZMNZ-_W-Ul5XSr0eKzs9-50" target="ZMNZ-_W-Ul5XSr0eKzs9-24">
          <mxGeometry relative="1" as="geometry" />
        </mxCell>
        <mxCell id="ZMNZ-_W-Ul5XSr0eKzs9-55" style="edgeStyle=orthogonalEdgeStyle;rounded=0;orthogonalLoop=1;jettySize=auto;html=1;entryX=0.093;entryY=0.01;entryDx=0;entryDy=0;entryPerimeter=0;exitX=0.232;exitY=-0.027;exitDx=0;exitDy=0;exitPerimeter=0;" edge="1" parent="1" source="ZMNZ-_W-Ul5XSr0eKzs9-50" target="ZMNZ-_W-Ul5XSr0eKzs9-2">
          <mxGeometry relative="1" as="geometry">
            <Array as="points">
              <mxPoint x="838" y="50" />
              <mxPoint x="168" y="50" />
            </Array>
          </mxGeometry>
        </mxCell>
        <mxCell id="ZMNZ-_W-Ul5XSr0eKzs9-59" value="library" style="text;html=1;align=center;verticalAlign=middle;resizable=0;points=[];autosize=1;strokeColor=none;fillColor=none;" vertex="1" parent="1">
          <mxGeometry x="570" y="-2" width="60" height="30" as="geometry" />
        </mxCell>
      </root>
    </mxGraphModel>
  </diagram>
</mxfile>
